{
  "accessors": [
    {
      "bufferView": 2,
      "componentType": 5126,
      "count": 2974,
      "max": [
        0.9935951828956604,
        1.5381633043289185,
        0.9935951828956604
      ],
      "min": [
        -0.9935951828956604,
        -1.1110450029373169,
        -0.9935951828956604
      ],
      "type": "VEC3"
    },
    {
      "bufferView": 2,
      "byteOffset": 35688,
      "componentType": 5126,
      "count": 2974,
      "max": [
        1,
        0.92351585626602173,
        1
      ],
      "min": [
        -1,
        -1,
        -1
      ],
      "type": "VEC3"
    },
    {
      "bufferView": 1,
      "componentType": 5126,
      "count": 2974,
      "max": [
        1.1446171998977661,
        1.0000001192092896
      ],
      "min": [
        -0.14461697638034821,
        0.0010910108685493469
      ],
      "type": "VEC2"
    },
    {
      "bufferView": 0,
      "componentType": 5125,
      "count": 9840,
      "max": [
        2973
      ],
      "min": [
        0
      ],
      "type": "SCALAR"
    },
    {
      "bufferView": 2,
      "byteOffset": 71376,
      "componentType": 5126,
      "count": 2158,
      "max": [
        0.39113235473632812,
        2.1810693740844727,
        0.39113146066665649
      ],
      "min": [
        -0.39113104343414307,
        1.5381630659103394,
        -0.39113187789916992
      ],
      "type": "VEC3"
    },
    {
      "bufferView": 2,
      "byteOffset": 97272,
      "componentType": 5126,
      "count": 2158,
      "max": [
        1,
        1,
        1
      ],
      "min": [
        -1,
        -0.55451005697250366,
        -1
      ],
      "type": "VEC3"
    },
    {
      "bufferView": 1,
      "byteOffset": 23792,
      "componentType": 5126,
      "count": 2158,
      "max": [
        1.0000001192092896,
        1.0000001192092896
      ],
      "min": [
        0,
        0.010000006295740604
      ],
      "type": "VEC2"
    },
    {
      "bufferView": 0,
      "byteOffset": 39360,
      "componentType": 5125,
      "count": 5568,
      "max": [
        2157
      ],
      "min": [
        0
      ],
      "type": "SCALAR"
    },
    {
      "bufferView": 2,
      "byteOffset": 123168,
      "componentType": 5126,
      "count": 87,
      "max": [
        0.97450363636016846,
        0.4168640673160553,
        0.9935951828956604
      ],
      "min": [
        -0.97450369596481323,
        -0.48800593614578247,
        0.19383992254734039
      ],
      "type": "VEC3"
    },
    {
      "bufferView": 2,
      "byteOffset": 124212,
      "componentType": 5126,
      "count": 87,
      "max": [
        0.98078793287277222,
        0,
        1
      ],
      "min": [
        -0.98078793287277222,
        0,
        0.19507722556591034
      ],
      "type": "VEC3"
    },
    {
      "bufferView": 1,
      "byteOffset": 41056,
      "componentType": 5126,
      "count": 87,
      "max": [
        1.0013686418533325,
        0.9980170726776123
      ],
      "min": [
        -0.0013687172904610634,
        0.0010910108685493469
      ],
      "type": "VEC2"
    },
    {
      "bufferView": 0,
      "byteOffset": 61632,
      "componentType": 5125,
      "count": 336,
      "max": [
        86
      ],
      "min": [
        0
      ],
      "type": "SCALAR"
    }
  ],
  "asset": {
    "extras": {
      "author": "Johana-PS (https://sketchfab.com/Johana-PS)",
      "license": "CC-BY-4.0 (http://creativecommons.org/licenses/by/4.0/)",
      "source": "https://sketchfab.com/3d-models/3d-wine-bottle-model-399587f06b894b00bea59ee03841dbb6",
      "title": "3D Wine Bottle Model"
    },
    "generator": "Sketchfab-8.17.0",
    "version": "2.0"
  },
  "bufferViews": [
    {
      "buffer": 0,
      "byteLength": 62976,
      "byteOffset": 0,
      "name": "floatBufferViews",
      "target": 34963
    },
    {
      "buffer": 0,
      "byteLength": 41752,
      "byteOffset": 62976,
      "byteStride": 8,
      "name": "floatBufferViews",
      "target": 34962
    },
    {
      "buffer": 0,
      "byteLength": 125256,
      "byteOffset": 104728,
      "byteStride": 12,
      "name": "floatBufferViews",
      "target": 34962
    }
  ],
  "buffers": [
    {
      "byteLength": 229984,
      "uri": "scene.bin"
    }
  ],
  "images": [
    {
      "uri": "textures/Label_baseColor.jpeg"
    }
  ],
  "materials": [
    {
      "doubleSided": false,
      "emissiveFactor": [
        0,
        0,
        0
      ],
      "name": "Glass",
      "pbrMetallicRoughness": {
        "baseColorFactor": [
          0.009750349653777135,
          0.0008410345361258856,
          0.0016484345182028288,
          1
        ],
        "metallicFactor": 0,
        "roughnessFactor": 0.038181800000000002
      }
    },
    {
      "doubleSided": true,
      "emissiveFactor": [
        0,
        0,
        0
      ],
      "name": "material",
      "pbrMetallicRoughness": {
        "baseColorFactor": [
          0.12614786475491588,
          0.0056808796873729838,
          0.024126878593512282,
          1
        ],
        "metallicFactor": 0,
        "roughnessFactor": 0.82590910015684182
      }
    },
    {
      "doubleSided": true,
      "emissiveFactor": [
        0,
        0,
        0
      ],
      "name": "Label",
      "pbrMetallicRoughness": {
        "baseColorFactor": [
          1,
          1,
          1,
          1
        ],
        "baseColorTexture": {
          "index": 0,
          "texCoord": 0
        },
        "metallicFactor": 0,
        "roughnessFactor": 0.25621213045987218
      }
    }
  ],
  "meshes": [
    {
      "primitives": [
        {
          "attributes": {
            "NORMAL": 1,
            "POSITION": 0,
            "TEXCOORD_0": 2
          },
          "indices": 3,
          "material": 0,
          "mode": 4
        }
      ]
    },
    {
      "primitives": [
        {
          "attributes": {
            "NORMAL": 5,
            "POSITION": 4,
            "TEXCOORD_0": 6
          },
          "indices": 7,
          "material": 1,
          "mode": 4
        }
      ]
    },
    {
      "primitives": [
        {
          "attributes": {
            "NORMAL": 9,
            "POSITION": 8,
            "TEXCOORD_0": 10
          },
          "indices": 11,
          "material": 2,
          "mode": 4
        }
      ]
    }
  ],
  "nodes": [
    {
      "children": [
        1
      ],
      "name": "RootNode (gltf orientation matrix)",
      "rotation": [
        -0.70710678118654746,
        -0,
        -0,
        0.70710678118654757
      ]
    },
    {
      "children": [
        2
      ],
      "name": "RootNode (model correction matrix)"
    },
    {
      "children": [
        3
      ],
      "name": "root"
    },
    {
      "children": [
        4
      ],
      "matrix": [
        1,
        0,
        0,
        0,
        0,
        2.2204460492503131e-16,
        1,
        0,
        0,
        -1,
        2.2204460492503131e-16,
        0,
        0,
        0,
        0,
        1
      ],
      "name": "GLTF_SceneRootNode"
    },
    {
      "children": [
        5,
        6,
        7
      ],
      "matrix": [
        0.46789002418518066,
        0,
        0,
        0,
        0,
        1.2582385540008545,
        0,
        0,
        0,
        0,
        0.46789002418518066,
        0,
        0.018813880160450935,
        1.4521685838699341,
        0,
        1
      ],
      "name": "Cylinder_2"
    },
    {
      "mesh": 0,
      "name": ""
    },
    {
      "mesh": 1,
      "name": ""
    },
    {
      "mesh": 2,
      "name": ""
    }
  ],
  "samplers": [
    {
      "magFilter": 9729,
      "minFilter": 9987,
      "wrapS": 10497,
      "wrapT": 10497
    }
  ],
  "scene": 0,
  "scenes": [
    {
      "name": "OSG_Scene",
      "nodes": [
        0
      ]
    }
  ],
  "textures": [
    {
      "sampler": 0,
      "source": 0
    }
  ]
}

